<?xml version="1.0" encoding="utf-8"?>
<!-- Generator: Adobe Illustrator 13.0.2, SVG Export Plug-In . SVG Version: 6.00 Build 14948)  -->
<!DOCTYPE svg PUBLIC "-//W3C//DTD SVG 1.1//EN" "http://www.w3.org/Graphics/SVG/1.1/DTD/svg11.dtd">
<svg version="1.1" id="Layer_1" xmlns="http://www.w3.org/2000/svg" xmlns:xlink="http://www.w3.org/1999/xlink" x="0px" y="0px"
	 width="109px" height="80px" viewBox="0 0 109 80" enable-background="new 0 0 109 80" xml:space="preserve">
<g>
	<path fill="#FFFFFF" d="M8.473,15.573c0.077,0.154,0.15,0.362,0.219,0.624c0.07,0.262,0.119,0.477,0.15,0.647
		c-0.384,0.138-0.823,0.253-1.315,0.346c-0.494,0.093-1.039,0.139-1.64,0.139c-1.924,0-3.386-0.527-4.387-1.582
		C0.5,14.693,0,13.165,0,11.164c0-0.877,0.123-1.689,0.369-2.436c0.246-0.746,0.608-1.397,1.085-1.951
		c0.477-0.554,1.073-0.989,1.789-1.304S4.787,5,5.726,5C6.31,5,6.868,5.042,7.399,5.127C7.93,5.211,8.35,5.308,8.658,5.415
		c0,0.201-0.027,0.431-0.081,0.693C8.523,6.37,8.465,6.578,8.403,6.731c-0.308-0.108-0.696-0.2-1.166-0.277
		C6.768,6.378,6.264,6.339,5.726,6.339c-0.693,0-1.296,0.12-1.812,0.357C3.397,6.936,2.967,7.27,2.621,7.701
		C2.274,8.132,2.016,8.64,1.847,9.225c-0.169,0.585-0.254,1.231-0.254,1.939c0,1.662,0.396,2.882,1.189,3.659
		c0.792,0.778,1.867,1.166,3.221,1.166c0.462,0,0.904-0.038,1.328-0.115C7.753,15.797,8.134,15.697,8.473,15.573z"/>
	<path fill="#FFFFFF" d="M27.935,9.271c0-1.016-0.239-1.758-0.716-2.228c-0.478-0.469-1.186-0.704-2.124-0.704
		c-0.616,0-1.177,0.042-1.686,0.127c-0.507,0.084-0.961,0.188-1.362,0.311c-0.077-0.138-0.142-0.338-0.196-0.601
		c-0.054-0.261-0.081-0.507-0.081-0.738c0.4-0.123,0.893-0.227,1.478-0.312C23.833,5.042,24.433,5,25.049,5
		c1.493,0,2.601,0.327,3.324,0.981s1.085,1.682,1.085,3.082v7.781c-0.539,0.107-1.193,0.215-1.962,0.323
		c-0.77,0.108-1.501,0.162-2.193,0.162c-1.431,0-2.559-0.285-3.382-0.854c-0.824-0.569-1.235-1.493-1.235-2.771
		c0-0.616,0.12-1.166,0.358-1.65c0.239-0.485,0.569-0.893,0.993-1.224c0.423-0.331,0.931-0.582,1.523-0.751
		c0.592-0.169,1.243-0.254,1.951-0.254c0.555,0,1.031,0.02,1.432,0.058c0.4,0.039,0.731,0.074,0.993,0.104V9.271z M27.935,11.325
		c-0.262-0.03-0.588-0.065-0.981-0.104c-0.392-0.038-0.766-0.058-1.12-0.058c-1.154,0-2.047,0.216-2.678,0.646
		c-0.631,0.431-0.947,1.047-0.947,1.848c0,0.507,0.096,0.916,0.289,1.223c0.192,0.308,0.442,0.542,0.75,0.705
		c0.308,0.161,0.646,0.269,1.016,0.323c0.37,0.054,0.739,0.081,1.108,0.081c0.477,0,0.923-0.023,1.338-0.069
		c0.416-0.046,0.824-0.107,1.224-0.185V11.325z"/>
	<path fill="#FFFFFF" d="M42.987,5.277c0.123-0.015,0.242-0.026,0.358-0.035c0.115-0.007,0.227-0.011,0.334-0.011
		c0.123,0,0.239,0.004,0.346,0.011c0.107,0.008,0.223,0.02,0.346,0.035c0.031,0.277,0.054,0.604,0.069,0.981
		c0.015,0.377,0.023,0.72,0.023,1.028c0.308-0.569,0.739-1.051,1.293-1.443c0.554-0.393,1.284-0.589,2.193-0.589
		c0.077,0,0.158,0,0.243,0c0.084,0,0.181,0.008,0.289,0.023c0.046,0.262,0.069,0.508,0.069,0.739c0,0.246-0.023,0.485-0.069,0.716
		c-0.124-0.015-0.219-0.023-0.289-0.023s-0.143,0-0.22,0c-1.047,0-1.885,0.331-2.516,0.992c-0.631,0.662-0.947,1.763-0.947,3.302
		v6.048c-0.092,0.015-0.219,0.027-0.38,0.035c-0.162,0.007-0.289,0.011-0.381,0.011c-0.077,0-0.2-0.004-0.369-0.011
		c-0.169-0.008-0.3-0.02-0.393-0.035V5.277z"/>
	<path fill="#FFFFFF" d="M60.763,5.277c0.124-0.015,0.243-0.026,0.358-0.035c0.115-0.007,0.227-0.011,0.335-0.011
		c0.124,0,0.238,0.004,0.346,0.011c0.108,0.008,0.223,0.02,0.346,0.035c0.031,0.277,0.055,0.604,0.07,0.981
		c0.015,0.377,0.022,0.72,0.022,1.028c0.309-0.569,0.739-1.051,1.294-1.443c0.554-0.393,1.284-0.589,2.192-0.589
		c0.077,0,0.158,0,0.242,0c0.085,0,0.182,0.008,0.289,0.023c0.046,0.262,0.07,0.508,0.07,0.739c0,0.246-0.024,0.485-0.07,0.716
		c-0.123-0.015-0.219-0.023-0.289-0.023c-0.068,0-0.142,0-0.219,0c-1.047,0-1.886,0.331-2.517,0.992
		c-0.631,0.662-0.946,1.763-0.946,3.302v6.048c-0.093,0.015-0.22,0.027-0.381,0.035c-0.162,0.007-0.289,0.011-0.382,0.011
		c-0.076,0-0.199-0.004-0.369-0.011c-0.17-0.008-0.3-0.02-0.393-0.035V5.277z"/>
	<path fill="#FFFFFF" d="M82.788,17.328c-0.878,0-1.647-0.158-2.309-0.474c-0.661-0.315-1.212-0.75-1.651-1.304
		c-0.438-0.554-0.765-1.208-0.98-1.962c-0.216-0.754-0.323-1.562-0.323-2.424s0.107-1.67,0.323-2.424s0.542-1.408,0.98-1.962
		c0.439-0.554,0.99-0.989,1.651-1.304S81.91,5,82.788,5c0.877,0,1.643,0.158,2.297,0.473s1.2,0.75,1.64,1.304
		c0.438,0.554,0.769,1.208,0.993,1.962c0.223,0.754,0.334,1.562,0.334,2.424s-0.111,1.67-0.334,2.424
		c-0.225,0.754-0.556,1.408-0.993,1.962c-0.439,0.554-0.985,0.989-1.64,1.304C84.431,17.17,83.665,17.328,82.788,17.328z
		 M82.788,15.989c1.231,0,2.15-0.43,2.758-1.292c0.609-0.862,0.913-2.039,0.913-3.532c0-1.493-0.304-2.67-0.913-3.532
		c-0.607-0.862-1.526-1.293-2.758-1.293s-2.151,0.431-2.759,1.293c-0.608,0.862-0.912,2.04-0.912,3.532
		c0,1.493,0.304,2.67,0.912,3.532C80.637,15.559,81.557,15.989,82.788,15.989z"/>
	<path fill="#FFFFFF" d="M100.818,15.435c0.338,0.138,0.777,0.258,1.315,0.357c0.539,0.101,1.055,0.15,1.548,0.15
		c0.923,0,1.653-0.204,2.192-0.612c0.538-0.408,0.809-0.912,0.809-1.512c0-0.416-0.081-0.758-0.243-1.027
		c-0.161-0.269-0.377-0.496-0.646-0.681c-0.27-0.185-0.574-0.334-0.912-0.45c-0.339-0.116-0.686-0.234-1.039-0.358
		c-0.385-0.123-0.767-0.261-1.144-0.416c-0.377-0.153-0.711-0.35-1.004-0.588c-0.292-0.239-0.527-0.527-0.704-0.866
		c-0.177-0.339-0.265-0.762-0.265-1.27c0-0.938,0.342-1.7,1.026-2.286C102.438,5.293,103.496,5,104.928,5
		c0.6,0,1.181,0.054,1.743,0.161c0.562,0.108,0.995,0.224,1.305,0.346c-0.077,0.447-0.185,0.886-0.324,1.316
		c-0.323-0.107-0.735-0.216-1.234-0.323c-0.501-0.107-1.02-0.162-1.559-0.162c-0.938,0-1.604,0.166-1.997,0.497
		c-0.392,0.331-0.589,0.766-0.589,1.304c0,0.292,0.065,0.542,0.197,0.75c0.131,0.208,0.307,0.384,0.529,0.531
		c0.225,0.146,0.478,0.273,0.764,0.381c0.284,0.108,0.588,0.208,0.912,0.3c0.414,0.138,0.834,0.289,1.258,0.45
		c0.423,0.162,0.807,0.374,1.153,0.635c0.347,0.262,0.631,0.593,0.854,0.993c0.223,0.4,0.335,0.9,0.335,1.5
		c0,0.553-0.112,1.058-0.335,1.512c-0.224,0.455-0.535,0.839-0.936,1.155c-0.399,0.316-0.877,0.558-1.431,0.727
		s-1.163,0.254-1.824,0.254c-0.738,0-1.396-0.046-1.974-0.139c-0.577-0.092-1.043-0.215-1.397-0.369
		C100.473,16.358,100.618,15.896,100.818,15.435z"/>
</g>
<g>
	<path fill="#FFFFFF" d="M12.314,26.082h23.745c0,1.361-0.125,2.711-0.374,4.048c-0.25,1.338-0.602,2.755-1.055,4.252h-14.9
		l-2.177,10.07c0.771-0.136,1.405-0.239,1.905-0.308c0.499-0.067,1.133-0.101,1.905-0.101c1.813,0,3.469,0.295,4.966,0.885
		c1.497,0.59,2.79,1.417,3.878,2.482c1.088,1.066,1.939,2.325,2.551,3.776s0.918,3.017,0.918,4.694c0,2.903-0.59,5.534-1.769,7.892
		c-1.18,2.359-2.801,4.366-4.865,6.021c-2.064,1.655-4.468,2.937-7.212,3.845C17.087,74.546,14.152,75,11.022,75
		c-1.497,0-3.221-0.16-5.171-0.477C3.9,74.206,1.949,73.661,0,72.891c0.226-1.315,0.521-2.676,0.884-4.082
		c0.362-1.405,0.861-2.79,1.497-4.15c1.587,0.59,3.106,1.056,4.558,1.396c1.451,0.34,2.994,0.51,4.626,0.51
		c1.315,0,2.664-0.17,4.048-0.51c1.383-0.34,2.63-0.885,3.742-1.633c1.111-0.749,2.018-1.69,2.721-2.824
		c0.703-1.133,1.055-2.494,1.055-4.083c0-1.904-0.659-3.367-1.973-4.388c-1.316-1.021-3.222-1.53-5.715-1.53
		c-1.316,0-2.563,0.147-3.742,0.441c-1.18,0.297-2.495,0.761-3.946,1.396l-1.021-1.021L12.314,26.082z"/>
	<path fill="#FFFFFF" d="M50.648,71.258c-5.08,0-8.822-1.473-11.226-4.423c-2.405-2.947-3.606-6.984-3.606-12.11
		c0-2.041,0.181-4.172,0.544-6.395c0.363-2.223,0.941-4.423,1.735-6.6c0.793-2.177,1.78-4.252,2.959-6.226s2.586-3.708,4.219-5.205
		c1.632-1.497,3.48-2.688,5.544-3.572c2.063-0.884,4.389-1.327,6.975-1.327c2.539,0,4.75,0.386,6.633,1.157
		c1.882,0.772,3.436,1.882,4.66,3.333c1.225,1.452,2.132,3.21,2.722,5.273c0.59,2.064,0.885,4.389,0.885,6.974
		c0,2.041-0.193,4.184-0.578,6.429c-0.386,2.245-0.965,4.446-1.735,6.6c-0.771,2.155-1.758,4.208-2.959,6.158
		c-1.202,1.95-2.619,3.663-4.252,5.137c-1.634,1.474-3.493,2.643-5.58,3.503C55.501,70.826,53.188,71.258,50.648,71.258z
		 M51.397,63.094c1.361,0,2.585-0.363,3.673-1.089c1.09-0.725,2.041-1.678,2.858-2.858c0.816-1.179,1.53-2.527,2.143-4.047
		s1.101-3.073,1.463-4.66c0.362-1.588,0.635-3.141,0.816-4.661c0.182-1.52,0.272-2.892,0.272-4.116c0-5.307-1.86-7.96-5.579-7.96
		c-2.086,0-3.844,0.76-5.272,2.279c-1.429,1.52-2.598,3.391-3.504,5.613c-0.908,2.223-1.565,4.56-1.973,7.009
		c-0.409,2.448-0.613,4.603-0.613,6.463c0,2.722,0.487,4.739,1.463,6.056C48.119,62.437,49.537,63.094,51.397,63.094z"/>
	<path fill="#FFFFFF" d="M106.438,21.115c0.181,0.727,0.315,1.429,0.408,2.11c0.09,0.68,0.136,1.36,0.136,2.041
		c0,0.681-0.046,1.338-0.136,1.973c-0.093,0.636-0.183,1.271-0.272,1.905c-2.313,0-4.502,0.216-6.565,0.646
		c-2.064,0.432-3.959,1.123-5.681,2.075c-1.725,0.953-3.244,2.201-4.559,3.742c-1.316,1.543-2.358,3.425-3.13,5.647
		c0.817-0.816,2.018-1.644,3.605-2.484c1.587-0.838,3.629-1.258,6.123-1.258c1.678,0,3.244,0.262,4.694,0.783
		c1.452,0.522,2.711,1.304,3.777,2.347c1.064,1.044,1.904,2.359,2.517,3.946c0.613,1.588,0.919,3.448,0.919,5.578
		c0,2.858-0.487,5.568-1.463,8.131c-0.976,2.563-2.348,4.809-4.116,6.736c-1.77,1.928-3.901,3.447-6.396,4.559
		c-2.494,1.11-5.261,1.666-8.3,1.666c-4.672,0-8.222-1.303-10.648-3.911c-2.426-2.608-3.639-6.498-3.639-11.669
		c0-4.264,0.714-8.459,2.143-12.587c1.429-4.126,3.505-7.824,6.227-11.09c2.722-3.266,6.042-5.896,9.967-7.893
		c3.922-1.995,8.379-2.994,13.368-2.994H106.438z M89.225,63.025c1.451,0,2.744-0.351,3.878-1.054
		c1.135-0.703,2.087-1.622,2.858-2.756c0.771-1.134,1.36-2.392,1.768-3.776c0.408-1.383,0.613-2.756,0.613-4.115
		c0-2.087-0.545-3.584-1.633-4.491c-1.089-0.907-2.563-1.36-4.422-1.36c-1.452,0-2.712,0.318-3.776,0.952
		c-1.066,0.636-1.951,1.486-2.653,2.551c-0.705,1.066-1.226,2.258-1.565,3.572c-0.34,1.315-0.51,2.653-0.51,4.015
		c0,2.177,0.476,3.799,1.43,4.864C86.163,62.493,87.501,63.025,89.225,63.025z"/>
</g>
</svg>
